{"title":"The.Way.He.Looks.[Hoje.Eu.Quero.Voltar.Sozinho].2014.WEBRip.x264","uid":10443684,"size":1742435252,"categoryP":"video","categoryS":"movies","magnet":"?xt=urn:btih:40416d7827c98c39ea865546bb65a8cd2c019482&amp;dn=The.Way.He.Looks.%5BHoje.Eu.Quero.Voltar.Sozinho%5D.2014.WEBRip.x264&amp;tr=udp%3A%2F%2Ftracker.openbittorrent.com%3A80&amp;tr=udp%3A%2F%2Fopen.demonii.com%3A1337&amp;tr=udp%3A%2F%2Ftracker.coppersurfer.tk%3A6969&amp;tr=udp%3A%2F%2Fexodus.desync.com%3A6969","seeders":38,"leechers":1,"uploader":"lletaif","files":1,"time":1403925159,"description":"Title:\nHoje eu Quero Voltar Sozinho Aka The Way He Looks\n\n\nCountry:\nBrazil, 2014\n\n\nLanguage:\nPortuguese\n\n\n\nNo Subtitle\n\n\nIMDB: &lt;a href=&quot;\nhttp://www.imdb.com/title/tt1702014/?ref_=nv_sr_1&quot; rel=&quot;nofollow&quot; target=&quot;_NEW&quot;&gt;\nhttp://www.imdb.com/title/tt1702014/?ref_=nv_sr_1&lt;/a&gt;\n\n\n\nTrivia:\nWon Ted Bear in Berlin International Film Festival 2014\n\n\n\nSinopsis:\nLeonardo is a blind teenager searching for independence. His everyday life, the relationship with his best friend, Giovana, and the way he sees the world change completely with the arrival of Gabriel.\n\n\nMedia Info:\n\nGeneral\nUnique ID                                : 178917990503166831178247715986505474150 (0x869A59FF2DAE53DFBD7ECC305FC02066)\nComplete name                            : The.Way.He.Looks.[Hoje.Eu.Quero.Voltar.Sozinho].2014.WEBRip.x264.HORiZON-ArtSubs.mkv\nFormat                                   : Matroska\nFormat version                           : Version 2\nFile size                                : 1.62 GiB\nDuration                                 : 1h 36mn\nOverall bit rate mode                    : Variable\nOverall bit rate                         : 2 414 Kbps\nEncoded date                             : UTC 2014-06-28 00:42:30\nWriting application                      : DVDFab 9.1.4.0\nWriting library                          : libebml v0.7.8 + libmatroska v0.8.1\n\nVideo\nID                                       : 1\nFormat                                   : AVC\nFormat/Info                              : Advanced Video Codec\nFormat profile                           : &lt;a class=&quot;__cf_email__&quot; href=&quot;/cdn-cgi/l/email-protection&quot; data-cfemail=&quot;9fd7f6f8f7dfd3abb1ae&quot;&gt;[email&amp;#160;protected]&lt;/a&gt;&lt;script cf-hash='f9e31' type=&quot;text/javascript&quot;&gt;\n/* &lt;![CDATA[ */!function(){try{var t=&quot;currentScript&quot;in document?document.currentScript:function(){for(var t=document.getElementsByTagName(&quot;script&quot;),e=t.length;e--;)if(t[e].getAttribute(&quot;cf-hash&quot;))return t[e]}();if(t&amp;&amp;t.previousSibling){var e,r,n,i,c=t.previousSibling,a=c.getAttribute(&quot;data-cfemail&quot;);if(a){for(e=&quot;&quot;,r=parseInt(a.substr(0,2),16),n=2;a.length-n;n+=2)i=parseInt(a.substr(n,2),16)^r,e+=String.fromCharCode(i);e=document.createTextNode(e),c.parentNode.replaceChild(e,c)}}}catch(u){}}();/* ]]&gt; */&lt;/script&gt;\nFormat settings, CABAC                   : Yes\nFormat settings, ReFrames                : 2 frames\nCodec ID                                 : V_MPEG4/ISO/AVC\nDuration                                 : 1h 36mn\nBit rate mode                            : Variable\nBit rate                                 : 1 918 Kbps\nMaximum bit rate                         : 3 028 Kbps\nWidth                                    : 1 280 pixels\nHeight                                   : 528 pixels\nDisplay aspect ratio                     : 2.40:1\nFrame rate mode                          : Constant\nFrame rate                               : 23.976 fps\nColor space                              : YUV\nChroma subsampling                       : 4:2:0\nBit depth                                : 8 bits\nScan type                                : Progressive\nBits/(Pixel*Frame)                       : 0.118\nStream size                              : 1.29 GiB (79%)\nDefault                                  : Yes\nForced                                   : No\n\nAudio\nID                                       : 2\nFormat                                   : AC-3\nFormat/Info                              : Audio Coding 3\nMode extension                           : CM (complete main)\nFormat settings, Endianness              : Big\nCodec ID                                 : A_AC3\nDuration                                 : 1h 36mn\nBit rate mode                            : Constant\nBit rate                                 : 448 Kbps\nChannel(s)                               : 6 channels\nChannel positions                        : Front: L C R, Side: L R, LFE\nSampling rate                            : 48.0 KHz\nBit depth                                : 16 bits\nCompression mode                         : Lossy\nStream size                              : 308 MiB (19%)\nLanguage                                 : Portuguese\nDefault                                  : Yes\nForced                                   : No","torrent":{"xt":"urn:btih:40416d7827c98c39ea865546bb65a8cd2c019482","amp;dn":"The.Way.He.Looks.%5BHoje.Eu.Quero.Voltar.Sozinho%5D.2014.WEBRip.x264","amp;tr":["udp%3A%2F%2Ftracker.openbittorrent.com%3A80","udp%3A%2F%2Fopen.demonii.com%3A1337","udp%3A%2F%2Ftracker.coppersurfer.tk%3A6969","udp%3A%2F%2Fexodus.desync.com%3A6969"],"infoHash":"40416d7827c98c39ea865546bb65a8cd2c019482","infoHashBuffer":{"type":"Buffer","data":[64,65,109,120,39,201,140,57,234,134,85,70,187,101,168,205,44,1,148,130]},"announce":[],"urlList":[]}}